<svg width="19" height="25" viewBox="0 0 19 25" fill="none" xmlns="http://www.w3.org/2000/svg">
<path d="M9.4998 0.000102964C6.98024 0.000102964 4.56389 1.01321 2.78257 2.81649C1.00094 4.61956 0 7.06528 0 9.61536C0 16.6249 6.82105 25 9.5 25C12.179 25 19 16.6249 19 9.61536C19 7.92757 18.5611 6.26939 17.7271 4.80778C16.8933 3.34597 15.6942 2.13228 14.2499 1.28838C12.8059 0.444278 11.1676 0 9.5001 0L9.4998 0.000102964ZM4.74995 9.61557C4.74995 8.34048 5.25032 7.11772 6.14113 6.21608C7.03194 5.31444 8.24002 4.80799 9.4998 4.80799C10.7596 4.80799 11.9676 5.31444 12.8585 6.21608C13.7493 7.11772 14.2496 8.34048 14.2496 9.61557C14.2496 10.8907 13.7493 12.1134 12.8585 13.0151C11.9676 13.9167 10.7596 14.4231 9.4998 14.4231C8.24002 14.4231 7.03194 13.9167 6.14113 13.0151C5.25032 12.1134 4.74995 10.8907 4.74995 9.61557Z" fill="#009C7C"/>
</svg>
