<svg width="50" height="50" viewBox="0 0 50 50" fill="none" xmlns="http://www.w3.org/2000/svg">
<circle cx="25" cy="25" r="25" fill="white"/>
<path d="M29.0606 34.5459C29.3418 34.2646 29.4998 33.8832 29.4998 33.4854C29.4998 33.0877 29.3418 32.7062 29.0606 32.4249L21.6356 24.9999L29.0606 17.5749C29.3338 17.292 29.485 16.9131 29.4816 16.5198C29.4782 16.1265 29.3204 15.7503 29.0423 15.4722C28.7642 15.1941 28.388 15.0363 27.9947 15.0329C27.6014 15.0295 27.2225 15.1807 26.9396 15.4539L18.4541 23.9394C18.1729 24.2207 18.0149 24.6022 18.0149 24.9999C18.0149 25.3977 18.1729 25.7791 18.4541 26.0604L26.9396 34.5459C27.2209 34.8271 27.6023 34.9851 28.0001 34.9851C28.3978 34.9851 28.7793 34.8271 29.0606 34.5459Z" fill="#2D2D2D"/>
</svg>
