<svg width="237" height="40" viewBox="0 0 237 40" fill="none" xmlns="http://www.w3.org/2000/svg">
<g clip-path="url(#clip0_2_433)">
<path d="M91.7343 11.659C92.1223 11.8254 92.4998 12.0149 92.865 12.2265C96.8751 14.889 100.878 17.5587 104.874 20.2356C106.482 21.3128 106.477 21.3489 105.37 22.9286C105.139 23.2192 104.998 23.5711 104.965 23.9408L120.284 7.93459L135.928 24.5251L136.169 24.3352C135.644 23.6138 135.053 22.9166 134.624 22.1375C134.47 21.8538 134.561 21.1469 134.786 20.993C139.207 17.949 143.689 14.9603 148.147 11.974C148.388 11.8105 148.716 11.7672 149.323 11.5557C148.807 12.9983 148.397 14.2005 147.963 15.3667C145.201 22.8428 142.434 30.3158 139.663 37.7855C139.13 39.2282 139.024 39.3027 137.734 38.4395C132.399 34.8714 127.066 31.2984 121.801 27.634C120.638 26.8262 119.836 26.8358 118.71 27.634C113.799 31.1132 108.844 34.5275 103.883 37.9322C101.289 39.7115 101.281 39.6754 100.23 36.742C97.4578 29.0158 94.6788 21.292 91.8934 13.5706C91.6982 13.0272 91.568 12.4621 91.4113 11.9067L91.7343 11.659Z" fill="white"/>
<path d="M27.1876 23.6764C27.2334 19.661 29.7118 15.9317 33.5982 13.145C39.5941 8.84587 48.4396 9.2979 54.151 13.9913C55.803 15.3415 57.1324 17.0419 58.0425 18.9689C58.9527 20.896 59.4206 23.0011 59.4123 25.1312C59.404 27.2613 58.9196 29.3627 57.9945 31.2826C57.0693 33.2025 55.7267 34.8926 54.0642 36.2299C46.887 42.0245 35.9247 41.0147 30.3628 34.049C28.3376 31.5124 27.2624 28.3193 27.1876 23.6764ZM48.794 25.2849C48.7603 21.974 46.3325 19.5383 43.1043 19.5768C39.9485 19.6129 37.6195 22.0221 37.6461 25.2248C37.6726 28.4275 39.8665 30.6276 43.0151 30.6083C46.318 30.5867 48.8253 28.276 48.794 25.2849Z" fill="white"/>
<path d="M73.7732 31.6302C73.7732 33.7942 73.7322 35.8668 73.7901 37.9466C73.819 38.9661 73.4019 39.2883 72.44 39.2618C69.788 39.1945 67.136 39.1512 64.484 39.1584C63.5992 39.1584 63.24 38.8387 63.2593 37.9707C63.2995 36.1289 63.3204 34.2855 63.322 32.4405C63.322 26.5929 63.2979 20.7454 63.322 14.9002C63.322 13.8375 62.9338 13.1546 61.9984 12.705C61.6718 12.5535 61.3766 12.3423 61.1281 12.0822C60.6676 11.5845 60.8364 11.195 61.4656 11.0459C61.8213 10.9848 62.1829 10.9646 62.5433 10.9858C67.6061 11.0002 72.669 10.9714 77.7319 11.0555C81.7484 11.1229 85.2273 12.4333 87.5611 15.9173C90.2588 19.9495 89.3982 25.5662 85.5793 28.5694C84.6921 29.2666 84.5908 29.786 85.1767 30.7333C86.5316 32.8973 87.778 35.1503 89.0558 37.372C89.9261 38.8843 89.7791 39.1753 88.0794 39.1993C85.4684 39.2378 82.8574 39.2306 80.2488 39.3027C79.4219 39.3244 78.9373 39.1031 78.5925 38.3001C77.756 36.3525 76.7892 34.453 75.9406 32.5174C75.5018 31.5725 74.8677 31.3032 73.7732 31.6302ZM75.902 22.6304C76.4203 22.5992 76.9748 22.6689 77.4474 22.5054C77.6432 22.4339 77.8213 22.3213 77.9698 22.1753C78.1182 22.0293 78.2336 21.8533 78.3081 21.659C78.39 21.3176 78.2743 20.7502 77.9512 20.5362C76.9724 19.8894 74.8026 19.8894 74.0794 20.3703C73.9394 20.491 73.8247 20.6381 73.742 20.8031C73.6592 20.9682 73.61 21.1479 73.5972 21.332C73.5875 22.0534 73.9299 22.628 75.8924 22.6304H75.902Z" fill="white"/>
<path d="M180.192 26.2948C180.192 22.5319 180.163 18.7665 180.212 14.994C180.226 13.8904 179.84 13.1594 178.852 12.6954C178.524 12.5478 178.225 12.3425 177.969 12.0894C177.507 11.6086 177.649 11.1998 178.295 11.0603C178.693 10.9963 179.097 10.9761 179.5 11.0002C184.399 11.0163 189.301 11.0371 194.207 11.0627C197.394 11.0796 200.328 11.837 202.768 14.0202C207.141 17.9346 206.975 24.9844 202.353 28.5886C201.43 29.3099 201.432 29.8413 201.991 30.7526C203.375 33.0055 204.675 35.309 205.989 37.6052C206.698 38.8459 206.524 39.1392 205.106 39.1584C202.416 39.1969 199.725 39.1825 197.037 39.2715C196.16 39.3003 195.745 38.9661 195.412 38.2111C194.59 36.3429 193.7 34.5059 192.83 32.6569C192.695 32.3684 192.589 31.9716 192.348 31.8418C191.948 31.6073 191.488 31.4945 191.024 31.5172C190.844 31.534 190.59 32.1063 190.583 32.4333C190.537 34.2751 190.53 36.1185 190.564 37.9634C190.578 38.8026 190.337 39.221 189.411 39.2041C186.68 39.1512 183.951 39.1272 181.214 39.1512C180.195 39.1512 180.144 38.5573 180.144 37.824C180.144 33.9769 180.144 30.1298 180.144 26.2828L180.192 26.2948ZM192.698 22.6521C193.214 22.6541 193.729 22.6196 194.24 22.5487C195.234 22.3443 195.335 21.4042 194.855 20.5314C194.375 19.6586 191.405 19.81 190.863 20.315C190.701 20.4857 190.592 20.6995 190.549 20.9305C190.258 22.2722 190.74 22.6473 192.698 22.6521Z" fill="white"/>
<path d="M209.909 26.3092C209.909 22.7434 209.849 19.1753 209.938 15.6119C209.976 14.1572 209.422 13.2508 208.175 12.6521C207.95 12.5644 207.742 12.4383 207.561 12.2794C207.345 12.0215 207.148 11.7483 206.972 11.4619C207.269 11.3152 207.57 11.0387 207.862 11.0459C213.443 11.1589 219.051 11.0099 224.598 11.5268C232.13 12.2145 237.333 18.4564 236.99 25.7273C236.636 33.0849 231.004 38.6559 223.248 39.0527C219.15 39.2594 215.051 39.0743 210.953 39.0959C209.94 39.0959 209.887 38.4612 209.887 37.735V26.3092H209.909ZM220.191 25.0685C220.191 26.3861 220.15 27.7134 220.22 29.019C220.237 29.3412 220.563 29.8678 220.828 29.9255C223.072 30.4256 225.83 28.6655 226.448 26.4415C227.424 22.9166 224.83 20.2573 220.804 20.452C220.582 20.452 220.23 21.0339 220.211 21.3609C220.15 22.6016 220.191 23.8327 220.191 25.0685Z" fill="white"/>
<path d="M162.253 11.0147C163.699 11.0147 165.146 11.0435 166.592 11.0147C167.61 10.9858 168.246 11.3681 168.598 12.3539C171.617 20.8415 174.652 29.3251 177.704 37.8048C178.068 38.8074 177.752 39.12 176.766 39.1055C173.794 39.0647 170.824 39.0334 167.846 39.0358C167.152 39.0358 166.836 38.7665 166.696 38.1101C166.489 37.1315 166.18 36.1746 165.973 35.1984C165.833 34.5323 165.508 34.263 164.816 34.2799C163.128 34.3159 161.44 34.3256 159.753 34.2799C159.046 34.2606 158.75 34.542 158.603 35.1911C158.362 36.2034 158.053 37.1988 157.805 38.2087C157.648 38.8435 157.323 39.1176 156.631 39.1055C153.779 39.0599 150.926 39.0863 148.074 39.0647C146.77 39.0526 146.529 38.7281 146.951 37.5427C149.948 29.1272 152.978 20.7309 155.946 12.3155C156.3 11.3152 156.869 10.9449 157.911 10.993C159.357 11.0627 160.804 11.0099 162.25 11.0099L162.253 11.0147ZM162.518 22.3155L162.012 22.3299L161.185 26.7131L163.523 26.6074C163.162 25.0661 162.841 23.6956 162.52 22.3251L162.518 22.3155Z" fill="white"/>
<path d="M22.4791 22.2722C22.4791 24.917 22.4791 27.396 22.4791 29.8726C22.4791 30.2236 22.443 30.5771 22.4164 31.0748C20.2466 31.0748 18.1154 31.0363 15.9987 31.0748C12.5848 31.1493 12.9633 30.2957 12.9103 34.2005C12.8934 35.4412 12.8838 36.6867 12.9633 37.9226C13.0309 38.9589 12.5583 39.2522 11.6157 39.2426C9.00708 39.2186 6.39368 39.1969 3.7851 39.2594C2.64233 39.2883 2.25177 38.9156 2.26141 37.7446C2.31204 30.3751 2.26141 23.0031 2.33133 15.6239C2.34338 14.1452 1.97693 13.0753 0.643707 12.3515C0.327881 12.2289 0.207336 11.7216 0 11.3729C0.339935 11.2335 0.679871 10.9762 1.01981 10.9738C8.8118 10.9425 16.6038 10.9449 24.4054 10.9137C25.3312 10.9137 25.6977 11.2623 25.6928 12.188C25.6928 14.2719 25.7258 16.3557 25.7917 18.4395C25.8254 19.4326 25.4301 19.786 24.4464 19.7644C21.0712 19.6946 17.6959 19.7043 14.3207 19.6225C13.3443 19.5985 12.9778 19.8822 12.9754 20.9017C12.973 21.9211 13.2623 22.3227 14.3424 22.2962C16.9823 22.2289 19.6295 22.2722 22.4791 22.2722Z" fill="white"/>
<path d="M117.36 3.00072C117.379 1.31762 118.616 -3.22323e-06 120.168 -3.22323e-06C120.561 -0.00471733 120.951 0.0698295 121.314 0.219154C121.677 0.368478 122.006 0.589495 122.281 0.868912C122.556 1.14833 122.772 1.48037 122.915 1.84507C123.058 2.20977 123.126 2.5996 123.114 2.9911C123.095 4.69584 121.887 5.91728 120.25 5.89324C118.575 5.86679 117.34 4.63332 117.36 3.00072Z" fill="white"/>
<path d="M91.4474 8.79298C91.4522 9.01223 91.4113 9.23009 91.3272 9.43276C91.2432 9.63543 91.1179 9.8185 90.9593 9.97037C90.8007 10.1223 90.6121 10.2396 90.4057 10.3151C90.1992 10.3906 89.9793 10.4224 89.7598 10.4087C89.3172 10.3994 88.8956 10.2184 88.5846 9.90415C88.2736 9.58991 88.0975 9.16718 88.0939 8.72565C88.1145 8.28386 88.3087 7.86794 88.6345 7.56782C88.9602 7.26771 89.3913 7.10752 89.8345 7.1219C90.0535 7.11535 90.2714 7.1546 90.4743 7.2371C90.6771 7.31961 90.8604 7.44355 91.0123 7.60095C91.1642 7.75836 91.2814 7.94574 91.3564 8.15103C91.4313 8.35633 91.4623 8.575 91.4474 8.79298Z" fill="white"/>
<path d="M150.979 10.3799C150.76 10.398 150.539 10.3702 150.331 10.2983C150.123 10.2264 149.932 10.1121 149.771 9.9625C149.609 9.81293 149.481 9.63146 149.394 9.42968C149.307 9.22789 149.263 9.01022 149.265 8.79057C149.254 8.5715 149.288 8.35244 149.366 8.1473C149.444 7.94216 149.564 7.75543 149.718 7.59896C149.872 7.4425 150.057 7.31971 150.262 7.23841C150.466 7.15711 150.685 7.11907 150.905 7.12671C151.329 7.13007 151.735 7.29798 152.037 7.59485C152.339 7.89173 152.514 8.29425 152.524 8.71716C152.533 9.14007 152.377 9.55014 152.089 9.86051C151.801 10.1709 151.403 10.3572 150.979 10.3799Z" fill="white"/>
</g>
<defs>
<clipPath id="clip0_2_433">
<rect width="237" height="40" fill="white"/>
</clipPath>
</defs>
</svg>
