<svg width="21" height="17" viewBox="0 0 21 17" fill="none" xmlns="http://www.w3.org/2000/svg">
<path d="M19.1739 0H1.82609C1.34185 0 0.877357 0.195746 0.534783 0.544107C0.192391 0.892674 0 1.36526 0 1.85792V15.1421C0 15.6348 0.192391 16.1073 0.534783 16.4559C0.877377 16.8043 1.34186 17 1.82609 17H19.1739C19.6581 17 20.1226 16.8043 20.4652 16.4559C20.8076 16.1073 21 15.6347 21 15.1421V1.85792C21 1.36524 20.8076 0.892653 20.4652 0.544107C20.1226 0.195746 19.6581 0 19.1739 0ZM17.6309 5.17442L11.7509 8.5929C11.3712 8.81809 10.9396 8.9369 10.4999 8.9369C10.0603 8.9369 9.6287 8.81809 9.24897 8.5929L3.36897 5.17442C3.15865 5.05333 3.00396 4.8524 2.93895 4.61561C2.87393 4.37881 2.90369 4.12542 3.0221 3.91104C3.14255 3.696 3.34228 3.53883 3.57728 3.47434C3.81207 3.40964 4.06254 3.44323 4.27287 3.56723L10.1529 6.98571L10.1531 6.98591C10.3691 7.10639 10.6308 7.10639 10.8468 6.98591L16.7268 3.56744L16.727 3.56723C16.9374 3.44324 17.1878 3.40964 17.4226 3.47434C17.6576 3.53882 17.8573 3.696 17.9778 3.91104C18.0962 4.12545 18.126 4.37883 18.0609 4.61561C17.9959 4.85241 17.8413 5.05334 17.6309 5.17442H17.6309Z" fill="#009C7C"/>
</svg>
