<svg width="20" height="20" viewBox="0 0 20 20" fill="none" xmlns="http://www.w3.org/2000/svg">
<g clip-path="url(#clip0_2_539)">
<path d="M9.99999 0C8.63129 0.0013241 7.31904 0.545681 6.35131 1.51357C5.38357 2.48147 4.83942 3.7938 4.83832 5.1625C4.84009 6.53091 5.38464 7.84273 6.35248 8.8101C7.32033 9.77748 8.63241 10.3214 10.0008 10.3225C11.3689 10.321 12.6806 9.77685 13.6481 8.80952C14.6156 7.84219 15.1599 6.53062 15.1617 5.1625C15.1606 3.79395 14.6165 2.48174 13.649 1.51387C12.6814 0.545999 11.3694 0.0015447 10.0008 0L9.99999 0ZM9.99999 3.025C10.5668 3.02544 11.1102 3.25078 11.5109 3.65155C11.9117 4.05231 12.137 4.59574 12.1375 5.1625C12.1366 5.72891 11.9112 6.27187 11.5107 6.67238C11.1102 7.07289 10.5672 7.29829 10.0008 7.29917C9.43427 7.29851 8.8911 7.07321 8.4904 6.67267C8.08971 6.27214 7.8642 5.72905 7.86332 5.1625C7.86398 4.59588 8.08942 4.05267 8.49016 3.65209C8.8909 3.2515 9.4342 3.02627 10.0008 3.02583L9.99999 3.025ZM5.67249 10.5C5.34842 10.5096 5.03602 10.6232 4.78142 10.8239C4.52681 11.0246 4.34348 11.3019 4.25849 11.6147C4.1735 11.9276 4.19135 12.2595 4.30941 12.5615C4.42747 12.8634 4.63949 13.1194 4.91415 13.2917C5.83631 13.8713 6.84972 14.2911 7.91165 14.5333L5.02665 17.4192C4.75019 17.7043 4.59696 18.0867 4.60006 18.4839C4.60317 18.881 4.76234 19.261 5.04323 19.5418C5.32411 19.8225 5.70416 19.9816 6.1013 19.9845C6.49844 19.9874 6.8808 19.8341 7.16582 19.5575L9.99999 16.7217L12.8375 19.5575C12.9778 19.6978 13.1443 19.8091 13.3276 19.885C13.5109 19.9609 13.7074 20 13.9058 20C14.1042 20 14.3007 19.9609 14.484 19.885C14.6673 19.8091 14.8339 19.6978 14.9742 19.5575C15.5658 18.9667 15.5658 18.0092 14.9742 17.4192L12.0892 14.5342C13.1509 14.2921 14.1641 13.8723 15.0858 13.2925C15.254 13.1868 15.3996 13.049 15.5145 12.887C15.6294 12.725 15.7113 12.5419 15.7554 12.3483C15.7996 12.1546 15.8052 11.9542 15.7718 11.7584C15.7385 11.5626 15.667 11.3752 15.5612 11.2071C15.4555 11.0389 15.3177 10.8933 15.1557 10.7784C14.9937 10.6635 14.8106 10.5816 14.617 10.5375C14.4233 10.4933 14.2229 10.4878 14.0271 10.5211C13.8313 10.5544 13.644 10.626 13.4758 10.7317C12.4338 11.383 11.2297 11.7284 10.0008 11.7284C8.77196 11.7284 7.56784 11.383 6.52582 10.7317C6.26082 10.565 5.96415 10.49 5.67249 10.5Z" fill="#009C7C"/>
</g>
<defs>
<clipPath id="clip0_2_539">
<rect width="20" height="20" fill="white"/>
</clipPath>
</defs>
</svg>
