<svg width="21" height="24" viewBox="0 0 21 24" fill="none" xmlns="http://www.w3.org/2000/svg">
<path fill-rule="evenodd" clip-rule="evenodd" d="M20.6063 19.3793C20.3834 19.6746 20.1558 19.97 19.9273 20.2666C19.4632 20.8694 18.9822 21.4931 18.5395 22.1192C17.694 23.3158 16.4314 23.6386 14.6784 23.1062C8.78905 21.3167 0.147529 10.4378 0.00182763 4.6296C-0.0374455 3.05135 0.555868 2.0636 1.81637 1.61085C1.86992 1.59152 1.92138 1.56569 1.96905 1.53398C2.37207 1.26537 3.1859 0.918648 3.8401 0.639289C4.1713 0.498368 4.48403 0.365005 4.73958 0.24488C5.09409 0.0789689 5.46373 0 5.82475 0C6.76455 0 7.65 0.533653 8.08199 1.45497L9.39104 4.25049C9.67456 4.85534 9.70418 5.53707 9.47421 6.1709C9.24466 6.80472 8.78517 7.30984 8.18054 7.59269L6.07325 8.57975C5.78909 8.71269 5.62675 9.01721 5.67548 9.32761C5.90187 10.779 10.6169 16.6229 11.6067 16.9885C11.9027 17.0979 12.2334 16.9979 12.4197 16.7442L13.9669 14.6382C14.3624 14.0999 14.9466 13.7475 15.613 13.6456C16.279 13.5436 16.9424 13.7053 17.4807 14.1005L19.9685 15.9279C20.4893 16.3103 20.8634 16.9714 20.9694 17.6962C21.0648 18.3454 20.9354 18.9427 20.6063 19.3789L20.6063 19.3793Z" fill="#009C7C"/>
</svg>
