<svg width="149" height="382" viewBox="0 0 149 382" fill="none" xmlns="http://www.w3.org/2000/svg">
<circle cx="18.3309" cy="18.3309" r="18.3309" transform="matrix(-1 0 0 1 55.6627 0)" fill="#EF1A8A"/>
<circle cx="126.807" cy="165.807" r="17.8071" fill="#801573"/>
<circle cx="9.4273" cy="9.4273" r="9.4273" transform="matrix(-1 0 0 1 112.854 109)" fill="#EF1A8A"/>
<circle cx="9.4273" cy="9.4273" r="9.4273" transform="matrix(-1 0 0 1 103.855 37)" fill="#EF1A8A"/>
<circle cx="9.4273" cy="9.4273" r="9.4273" transform="matrix(-1 0 0 1 47.8545 148)" fill="#801674"/>
<circle cx="72.4273" cy="220.427" r="9.4273" fill="#EF1A8A"/>
<circle cx="60.238" cy="78.2374" r="5.23739" fill="#801875"/>
<circle cx="114.237" cy="243.237" r="5.23739" fill="#801875"/>
<circle cx="136.237" cy="216.237" r="5.23739" fill="#EE1B8A"/>
<circle cx="42.2374" cy="257.237" r="5.23739" fill="#EE1B8A"/>
<circle cx="66.2374" cy="172.237" r="5.23739" fill="#801875"/>
<g clip-path="url(#clip0_2_495)">
<path d="M13.803 286.89C20.2591 282.255 28.4478 280.076 36.3656 280.959C45.2974 281.783 53.7056 286.57 59.1561 293.628C62.2562 320.112 109.555 312.814 121.866 294.503C133.715 302.377 140.819 316.712 139.284 330.896C119.12 343.6 122.916 343.884 122.423 361.828C119.788 366.817 114.844 370.602 109.19 371.384C104.012 372.259 98.6625 370.518 94.6635 367.203C88.8605 378.072 75.364 384.079 63.3726 380.865C52.8607 378.35 44.4188 369.273 42.6271 358.656C40.7834 350.296 20.5046 339.362 6.12178 332.662C1.69403 326.395 -0.54583 318.622 0.113538 310.975C0.789747 301.452 5.97791 292.391 13.803 286.89Z" fill="#7F1472"/>
<path d="M74.3842 273.27C82.2007 268.719 91.9947 267.751 100.572 270.628C111.279 274.061 119.711 283.516 121.866 294.503C123.473 302.015 122.163 310.049 118.352 316.712C117.624 313.541 115.943 310.445 113.086 308.72C110.349 307.055 107.029 306.886 103.909 306.819C97.2183 306.835 90.5247 306.81 83.8317 306.835C83.8317 315.307 83.8317 323.778 83.8317 332.258C80.4598 331.45 77.2063 330.214 74.1561 328.582C75.9307 321.347 77.6119 314.079 79.4371 306.853C76.4205 306.81 73.4123 306.81 70.4043 306.861C69.2717 312.144 68.1051 317.41 66.9479 322.685C59.63 315.13 56.7225 303.799 59.1568 293.628C61.1335 285.14 66.7621 277.569 74.3842 273.27ZM137.203 275.264C143.44 273.026 150.353 279.436 148.478 285.779C147.219 292.021 138.65 294.747 134.017 290.33C128.805 286.208 130.78 276.988 137.203 275.264ZM92.6969 314.406C97.1241 314.575 101.628 314.011 106.013 314.71C110.56 315.374 110.899 322.458 106.689 323.837C102.168 325.175 97.3525 324.207 92.7055 324.485C92.6884 321.128 92.6883 317.764 92.6969 314.406ZM6.1222 332.662C9.7981 325.545 18.6288 322.003 26.276 324.367C28.3463 333.099 30.3747 341.84 32.4792 350.572C35.6984 350.614 38.9182 350.622 42.1377 350.572C42.6694 348.763 43.1941 346.946 43.6588 345.121C44.7486 347.089 46.3037 349.049 46.1347 351.439C46.2363 354.265 44.3855 356.638 42.6278 358.656C38.4698 362.517 31.2453 360.398 28.8027 355.561C22.6001 358.53 14.6743 357.622 9.65424 352.818C4.09386 347.871 2.66608 339.19 6.1222 332.662ZM118.318 331.467C124.375 327.068 133.038 326.58 139.284 330.896C144.276 334.311 147.379 340.334 147.008 346.391C146.779 352.557 142.974 358.404 137.457 361.197C132.87 363.611 127.207 363.805 122.426 361.828C117.362 359.683 113.408 355.199 112.107 349.857C119.56 347.686 122.948 337.684 118.318 331.467Z" fill="#EF1A8A"/>
<path d="M92.6969 332.233C92.6883 335.817 92.6798 339.409 92.6969 343.001C96.4476 343.001 100.198 343.01 103.952 343.01C106.409 343.051 109.15 342.445 110.668 340.351C111.776 337.743 111.133 333.831 108.076 332.923C103.098 331.366 97.8091 332.275 92.6969 332.233ZM92.6969 314.407C92.6883 317.764 92.6883 321.128 92.7055 324.485C97.3524 324.207 102.168 325.175 106.689 323.837C110.897 322.458 110.56 315.374 106.013 314.71C101.628 314.011 97.1241 314.575 92.6969 314.407ZM83.8311 306.836C90.5247 306.811 97.2154 306.836 103.909 306.819C107.029 306.886 110.349 307.055 113.086 308.72C115.943 310.445 117.624 313.541 118.352 316.712C118.555 321.12 116.5 325.545 112.495 327.665C114.633 328.599 116.694 329.751 118.318 331.467C122.948 337.684 119.56 347.686 112.107 349.857C102.767 351.304 93.2535 350.261 83.8311 350.563C83.8311 344.464 83.8394 338.357 83.8311 332.258C83.8311 323.778 83.8311 315.307 83.8311 306.836ZM22.1774 306.836C25.2196 306.819 28.2533 306.827 31.2952 306.827C33.4252 316.754 35.5799 326.681 37.7601 336.591C40.405 326.681 42.8978 316.72 45.6526 306.836C49.1681 306.819 52.6915 306.811 56.2073 306.853C58.7337 316.981 61.3367 327.093 63.7955 337.23C64.8513 332.384 65.908 327.539 66.9473 322.685C68.1048 317.41 69.2714 312.144 70.4037 306.861C73.4119 306.811 76.4199 306.811 79.4367 306.853C77.6116 314.079 75.9301 321.347 74.1555 328.582C72.3387 335.901 70.6572 343.244 68.8152 350.555C65.6717 350.581 62.5364 350.581 59.3928 350.555C56.4182 339.753 53.5958 328.91 50.7737 318.075C48.3734 327.084 45.9905 336.094 43.6585 345.121C43.1938 346.946 42.6691 348.763 42.1374 350.572C38.9176 350.622 35.6981 350.614 32.4786 350.572C30.3744 341.84 28.3457 333.099 26.2754 324.367C24.941 318.512 23.4621 312.699 22.1774 306.836Z" fill="white"/>
</g>
<defs>
<clipPath id="clip0_2_495">
<rect width="149" height="113" fill="white" transform="translate(0 269)"/>
</clipPath>
</defs>
</svg>
